<?xml version="1.0" standalone="no"?>
<!DOCTYPE svg PUBLIC "-//W3C//DTD SVG 20010904//EN"
 "http://www.w3.org/TR/2001/REC-SVG-20010904/DTD/svg10.dtd">
<svg version="1.0" xmlns="http://www.w3.org/2000/svg"
 width="431.000000pt" height="431.000000pt" viewBox="0 0 431.000000 431.000000"
 preserveAspectRatio="xMidYMid meet">
<metadata>
Created by potrace 1.14, written by Peter Selinger 2001-2017
</metadata>
<g transform="translate(0.000000,431.000000) scale(0.100000,-0.100000)"
fill="#000000" stroke="none">
<path d="M1301 3746 l-51 -52 0 -133 0 -133 -27 6 c-16 3 -37 8 -48 11 -15 4
-34 -8 -72 -46 l-53 -51 0 -335 c0 -286 -2 -334 -14 -330 -8 3 -31 9 -50 13
-34 6 -40 3 -86 -42 l-49 -49 -1 -302 c0 -167 2 -303 4 -303 5 0 268 -70 566
-150 80 -21 164 -44 188 -50 l42 -11 0 -136 0 -135 -22 6 c-74 21 -75 21 -128
-33 l-50 -51 0 -134 0 -134 -49 13 -49 13 -51 -52 -51 -52 0 -199 0 -200 99
-26 100 -26 50 51 c41 41 51 58 51 85 0 33 0 33 38 26 20 -4 42 -8 48 -9 6 0
34 21 62 47 43 40 52 54 52 82 0 19 2 35 4 35 4 0 65 -17 241 -65 l50 -14 53
52 52 51 0 133 c0 100 3 133 13 133 6 -1 74 -18 149 -39 l137 -38 51 53 c41
43 50 59 50 88 l0 35 47 -14 48 -15 52 52 c43 42 53 59 53 85 0 38 -3 37 54
22 l44 -11 51 53 c41 42 51 59 51 86 0 18 1 33 3 33 1 0 23 -7 48 -14 l46 -14
52 52 c42 43 51 58 51 88 l0 36 47 -14 47 -14 53 52 53 52 0 101 0 100 -108
27 c-59 15 -237 63 -397 106 l-290 78 -3 136 -3 137 48 -14 48 -15 52 52 53
52 0 134 0 134 28 -7 c15 -3 36 -9 48 -11 33 -8 124 89 124 133 0 18 1 33 3
33 1 0 23 -7 48 -14 l46 -14 52 52 51 52 0 101 0 101 -47 11 c-27 7 -138 36
-248 66 -339 91 -1325 356 -1417 380 l-86 22 -51 -51z"/>
</g>
</svg>
